PathFileType	4	(X/Y/Z)	Patient4_TMGait_0pt7_01_left_15.trc.trc
DataRate	CameraRate	NumFrames	NumMarkers	Units	OrigDataRate	OrigDataStartFrame	OrigNumFrames
87.500000000000	87.500000000000	4	33	mm	87.500000000000	124	       141
Frame#	Time	Sacral			L.Shoulder			Chest			R.Shoulder			Neck			R.ASIS			L.ASIS			R.Thigh.Superior			R.Thigh.Lateral			R.Thigh.Inferior			R.Patella			L.Thigh.Superior			L.Thigh.Lateral			L.Thigh.Inferior			L.Patella			L.Shank.Superior			L.Shank.Lateral			L.Shank.Inferior			R.Shank.Superior			R.Shank.Lateral			R.Shank.Inferior			R.Heel			R.Midfoot.Superior			R.Midfoot.Lateral			R.Toe			L.Heel			L.Midfoot.Lateral			L.Midfoot.Superior			L.Toe			L.Elbow			L.Wrist			R.Elbow			R.Wrist			
		X1	Y1	Z1	X2	Y2	Z2	X3	Y3	Z3	X4	Y4	Z4	X5	Y5	Z5	X6	Y6	Z6	X7	Y7	Z7	X8	Y8	Z8	X9	Y9	Z9	X10	Y10	Z10	X11	Y11	Z11	X12	Y12	Z12	X13	Y13	Z13	X14	Y14	Z14	X15	Y15	Z15	X16	Y16	Z16	X17	Y17	Z17	X18	Y18	Z18	X19	Y19	Z19	X20	Y20	Z20	X21	Y21	Z21	X22	Y22	Z22	X23	Y23	Z23	X24	Y24	Z24	X25	Y25	Z25	X26	Y26	Z26	X27	Y27	Z27	X28	Y28	Z28	X29	Y29	Z29	X30	Y30	Z30	X31	Y31	Z31	X32	Y32	Z32	X33	Y33	Z33	

124	18.575714285714	834.472748092654	995.704159769065	516.408053080458	996.544413540081	1421.948200552032	323.799502199088	1116.949784912801	1346.592213536186	469.150642844316	1059.310344531143	1422.060183722794	651.890801220491	1021.386983549204	1480.477272265005	479.623585075609	1066.524088744107	930.773085142285	618.977489701124	1036.063819740760	944.822607340310	343.546224205048	1060.936471055751	717.896443076680	593.837461894385	956.401770261788	626.243511341200	659.110439426407	1012.433428010443	559.011098630258	577.551957778398	990.494757745658	473.155324660856	582.387417489498	1114.732163406413	766.567723170107	376.275875926411	1068.808944358011	636.625139238419	297.848709785932	1173.767182406920	581.319389827867	359.236478282119	1200.213920335559	515.500473564527	356.441557099037	1185.113494071710	442.373104036450	344.474515733156	1120.033584992689	311.647316663578	295.682896125643	1210.144139759964	214.644248775386	348.811071543968	950.159720196692	390.021738660795	591.410018930944	864.644274385146	298.831623689280	656.247853716118	888.388980502651	198.865563944491	592.073612990922	734.618996227057	43.087993349030	563.812221506124	905.913324869726	96.169350606408	600.420843711096	816.879627064360	36.694622409148	639.361949297061	1025.308948834553	42.667212325322	630.660912044146	1129.374517148284	39.173358033157	388.568856246506	1201.631610912350	42.569139617922	306.726955485066	1274.741075192258	116.166772783101	327.430643417992	1407.095676876872	82.078675042259	298.295955642296	824.570703853434	1118.068663623299	231.939450776870	755.846889630823	868.562459417825	239.222780274304	1225.951708308128	1124.284556056174	740.222479259249	1409.748077724946	1247.677336764813	623.102514338103	
125	18.587142857143	835.594213749806	994.040175492674	513.452387544607	996.420273096762	1420.637186646225	320.990877915359	1116.874263005370	1345.932482360275	466.659420464798	1058.376485752445	1421.337927697189	649.121696463090	1020.627083910687	1479.345995531897	476.777639311290	1067.671237861819	929.253086590322	616.438370634267	1037.810069131439	943.537014348255	341.118691771046	1061.926618673559	716.117894203070	591.669649848610	956.869107184107	624.709311227133	656.776248350403	1012.850491987734	557.018263559622	575.478420721834	990.097895441998	470.482845254919	580.167487674611	1116.560498795368	764.484368844829	374.140261239358	1068.567866995227	634.311214673037	297.679601779751	1173.703771333361	578.992309623728	358.722447074614	1198.597663919304	512.069595176021	356.967663913871	1182.830205021633	438.712184171246	345.029915820298	1115.817010195576	308.809919922789	296.673416006322	1203.996676751680	210.682553870762	350.589961838042	948.218481582623	388.018104264026	589.520657238478	861.257093795521	298.497695511689	654.907123942987	882.702812813995	197.928782267181	591.092419146336	726.621221564296	43.664922678325	563.890041007854	898.153657257069	96.105242464200	600.121324645139	808.945882139199	36.905724080433	639.317938353891	1017.445653549896	42.132582225407	630.732684179526	1119.361486268255	38.104332384250	391.026177889732	1191.137242272436	39.987979245658	308.566870821168	1266.554610869554	110.972812443449	329.623521447630	1397.928637734115	72.998885360841	299.314641455520	824.020039401256	1117.253633190099	229.625377491987	755.053650528972	867.740877059877	237.394218264384	1228.222838400021	1125.635033592761	736.867908681048	1403.882119024025	1257.960388405749	618.247603012850	
126	18.598571428571	836.695583895506	992.532255269573	510.495684225145	996.341665264369	1419.421266433451	318.060876520693	1116.856825498243	1345.403040049053	464.074491954751	1057.536868967477	1420.801133741909	646.265689913273	1019.968435083127	1478.390745460051	473.769603415012	1068.829038181223	927.883625250558	613.828365474695	1039.511334523425	942.533085209887	338.652489353715	1063.064828657110	714.505770686136	589.448252410752	957.499185999883	623.277692822683	654.303397555564	1013.599609584137	555.128561283535	573.363273444543	990.145498182670	467.770095836324	577.962523450375	1118.579972664852	762.858636347029	371.901539947037	1068.770800036325	632.630535575250	297.081332620040	1173.976778120421	577.203574890870	357.969422835673	1197.382910885018	509.279790965774	357.182212699013	1181.029346214678	435.661474881993	345.270258685052	1112.341334478692	306.654228100447	296.821458460322	1198.248861286714	207.335287360751	351.848786025699	946.525195118033	386.118732586803	587.602766453288	858.051634993255	298.385962366412	653.524663121063	877.172369984424	197.212847361427	590.135388307517	718.641445825140	44.669030783631	564.036690129236	890.523886784781	96.096513753321	599.860820885985	801.056531781976	37.320659357461	639.298632582620	1009.631701415858	41.528269940120	630.816227086537	1109.551626355954	37.474463258013	392.590531849981	1181.082623735732	38.003069626640	309.746470941335	1258.568839927625	106.546821791735	331.373156137742	1389.080419203253	65.002273684487	300.311512844062	824.159423001128	1115.999890404682	227.226270135759	755.391445774944	866.356803917536	235.291520599791	1229.864606689312	1126.601341396748	733.767753117620	1397.661029142507	1266.716744543518	613.698969419291	
127	18.610000000000	837.749147536128	991.259131827052	507.563027278080	996.303350578138	1418.360350304557	315.040431157384	1116.894218230660	1345.047512469653	461.414679320682	1056.828053036116	1420.512665115190	643.346189193419	1019.434393502159	1477.674225502328	470.628394790400	1069.956436210843	926.742185199334	611.137911104043	1041.109255480444	941.878540877178	336.128768345998	1064.309737373837	713.144109689158	587.130877584351	958.319192021582	622.013337532713	651.701602012984	1014.706491710601	553.425746709941	571.194097290792	990.720650010528	465.082313077082	575.830303176788	1120.713254127112	761.795413016491	369.581572994864	1069.454357475549	631.663016742147	295.999417324117	1174.543160005286	576.005817845823	356.937595863852	1196.571653322022	507.210494485295	356.991484426672	1179.710480684542	433.288126811417	345.149288210815	1109.612171502539	305.218331549052	296.151205331872	1192.960914408081	204.686795510380	352.578421315626	945.141579034098	384.384900571376	585.695499521967	855.085180743632	298.579873098248	652.130968932753	871.861268795596	196.801773994145	589.231702009605	710.719630328868	46.253113163792	564.259408621861	883.080558841800	96.169636543506	599.669435231061	793.234165974755	38.029450254901	639.318861688883	1001.860256048753	40.875636493159	630.905502424542	1100.190592893986	37.220324733095	393.368676157189	1171.664717599877	36.613756314281	310.334973858371	1250.870699522083	103.047100120494	332.635380308810	1380.669190005013	58.480195966247	301.183815601176	825.040882826846	1114.336701912689	224.721233133814	756.889576685769	864.445437210820	232.909522632279	1230.798491615788	1127.153929778595	730.941345867057	1391.184216625773	1273.954058880444	609.442294626104	
